<svg id="visual" viewBox="0 0 675 900" width="675" height="900" xmlns="http://www.w3.org/2000/svg" xmlns:xlink="http://www.w3.org/1999/xlink" version="1.1"><rect width="675" height="900" fill="#131323"></rect><g><g transform="translate(62 662)"><path d="M0 -39.7L34.4 -19.8L34.4 19.8L0 39.7L-34.4 19.8L-34.4 -19.8Z" fill="none" stroke="#434463" stroke-width="2"></path></g><g transform="translate(443 200)"><path d="M0 -29L25.1 -14.5L25.1 14.5L0 29L-25.1 14.5L-25.1 -14.5Z" fill="none" stroke="#434463" stroke-width="2"></path></g><g transform="translate(301 818)"><path d="M0 -29L25.1 -14.5L25.1 14.5L0 29L-25.1 14.5L-25.1 -14.5Z" fill="none" stroke="#434463" stroke-width="2"></path></g><g transform="translate(136 293)"><path d="M0 -35L30.3 -17.5L30.3 17.5L0 35L-30.3 17.5L-30.3 -17.5Z" fill="none" stroke="#434463" stroke-width="2"></path></g><g transform="translate(196 839)"><path d="M0 -24L20.8 -12L20.8 12L0 24L-20.8 12L-20.8 -12Z" fill="none" stroke="#434463" stroke-width="2"></path></g><g transform="translate(469 563)"><path d="M0 -25L21.7 -12.5L21.7 12.5L0 25L-21.7 12.5L-21.7 -12.5Z" stroke="#434463" fill="none" stroke-width="2"></path></g><g transform="translate(557 334)"><path d="M0 -35L30.3 -17.5L30.3 17.5L0 35L-30.3 17.5L-30.3 -17.5Z" stroke="#434463" fill="none" stroke-width="2"></path></g><g transform="translate(159 508)"><path d="M0 -33L28.6 -16.5L28.6 16.5L0 33L-28.6 16.5L-28.6 -16.5Z" stroke="#434463" fill="none" stroke-width="2"></path></g><g transform="translate(243 627)"><path d="M0 -25L21.7 -12.5L21.7 12.5L0 25L-21.7 12.5L-21.7 -12.5Z" stroke="#434463" fill="none" stroke-width="2"></path></g><g transform="translate(651 630)"><path d="M0 -26L22.5 -13L22.5 13L0 26L-22.5 13L-22.5 -13Z" stroke="#434463" fill="none" stroke-width="2"></path></g><g transform="translate(156 640)"><path d="M0 -34L29.4 -17L29.4 17L0 34L-29.4 17L-29.4 -17Z" stroke="#434463" fill="none" stroke-width="2"></path></g><g transform="translate(632 540)"><path d="M0 -27L23.4 -13.5L23.4 13.5L0 27L-23.4 13.5L-23.4 -13.5Z" stroke="#434463" fill="none" stroke-width="2"></path></g><g transform="translate(562 462)"><path d="M0 -36L31.2 -18L31.2 18L0 36L-31.2 18L-31.2 -18Z" stroke="#434463" fill="none" stroke-width="2"></path></g><g transform="translate(28 573)"><path d="M0 -38L32.9 -19L32.9 19L0 38L-32.9 19L-32.9 -19Z" stroke="#434463" fill="none" stroke-width="2"></path></g><g transform="translate(287 176)"><path d="M0 -30L26 -15L26 15L0 30L-26 15L-26 -15Z" stroke="#434463" fill="none" stroke-width="2"></path></g><g transform="translate(533 140)"><path d="M0 -30L26 -15L26 15L0 30L-26 15L-26 -15Z" stroke="#434463" fill="none" stroke-width="2"></path></g><g transform="translate(556 828)"><path d="M0 -25L21.7 -12.5L21.7 12.5L0 25L-21.7 12.5L-21.7 -12.5Z" stroke="#434463" fill="none" stroke-width="2"></path></g><g transform="translate(304 43)"><path d="M0 -25L21.7 -12.5L21.7 12.5L0 25L-21.7 12.5L-21.7 -12.5Z" stroke="#434463" fill="none" stroke-width="2"></path></g><g transform="translate(388 892)"><path d="M0 -33L28.6 -16.5L28.6 16.5L0 33L-28.6 16.5L-28.6 -16.5Z" stroke="#434463" fill="none" stroke-width="2"></path></g></g></svg>